TITLE ""
FILE "2Q_j_1570-1583.mp3" MP3
  TRACK 01 AUDIO
    TITLE "2Q_j_1570-1583_01"
    INDEX 01 00:00:00
  TRACK 02 AUDIO
    TITLE "2Q_j_1570-1583_02"
    INDEX 01 00:00:10
  TRACK 03 AUDIO
    TITLE "2Q_j_1570-1583_03"
    INDEX 01 00:01:49
  TRACK 04 AUDIO
    TITLE "2Q_j_1570-1583_04"
    INDEX 01 00:02:25
  TRACK 05 AUDIO
    TITLE "2Q_j_1570-1583_05"
    INDEX 01 00:06:46
  TRACK 06 AUDIO
    TITLE "2Q_j_1570-1583_06"
    INDEX 01 00:07:18
  TRACK 07 AUDIO
    TITLE "2Q_j_1570-1583_07"
    INDEX 01 00:11:00
  TRACK 08 AUDIO
    TITLE "2Q_j_1570-1583_08"
    INDEX 01 00:11:49
  TRACK 09 AUDIO
    TITLE "2Q_j_1570-1583_09"
    INDEX 01 00:12:66
  TRACK 10 AUDIO
    TITLE "2Q_j_1570-1583_10"
    INDEX 01 00:13:36
  TRACK 11 AUDIO
    TITLE "2Q_j_1570-1583_11"
    INDEX 01 00:16:19
  TRACK 12 AUDIO
    TITLE "2Q_j_1570-1583_12"
    INDEX 01 00:16:64
  TRACK 13 AUDIO
    TITLE "2Q_j_1570-1583_13"
    INDEX 01 00:19:37
  TRACK 14 AUDIO
    TITLE "2Q_j_1570-1583_14"
    INDEX 01 00:20:11
  TRACK 15 AUDIO
    TITLE "2Q_j_1570-1583_15"
    INDEX 01 00:21:24
  TRACK 16 AUDIO
    TITLE "2Q_j_1570-1583_16"
    INDEX 01 00:22:00
  TRACK 17 AUDIO
    TITLE "2Q_j_1570-1583_17"
    INDEX 01 00:24:30
  TRACK 18 AUDIO
    TITLE "2Q_j_1570-1583_18"
    INDEX 01 00:25:00
  TRACK 19 AUDIO
    TITLE "2Q_j_1570-1583_19"
    INDEX 01 00:28:54
  TRACK 20 AUDIO
    TITLE "2Q_j_1570-1583_20"
    INDEX 01 00:29:26
  TRACK 21 AUDIO
    TITLE "2Q_j_1570-1583_21"
    INDEX 01 00:30:49
  TRACK 22 AUDIO
    TITLE "2Q_j_1570-1583_22"
    INDEX 01 00:31:19
  TRACK 23 AUDIO
    TITLE "2Q_j_1570-1583_23"
    INDEX 01 00:32:26
  TRACK 24 AUDIO
    TITLE "2Q_j_1570-1583_24"
    INDEX 01 00:32:73
  TRACK 25 AUDIO
    TITLE "2Q_j_1570-1583_25"
    INDEX 01 00:36:30
  TRACK 26 AUDIO
    TITLE "2Q_j_1570-1583_26"
    INDEX 01 00:37:06
  TRACK 27 AUDIO
    TITLE "2Q_j_1570-1583_27"
    INDEX 01 00:38:52
  TRACK 28 AUDIO
    TITLE "2Q_j_1570-1583_28"
    INDEX 01 00:39:28
  TRACK 29 AUDIO
    TITLE "2Q_j_1570-1583_29"
    INDEX 01 00:42:30
  TRACK 30 AUDIO
    TITLE "2Q_j_1570-1583_30"
    INDEX 01 00:43:00
  TRACK 31 AUDIO
    TITLE "2Q_j_1570-1583_31"
    INDEX 01 00:46:73
  TRACK 32 AUDIO
    TITLE "2Q_j_1570-1583_32"
    INDEX 01 00:47:49
  TRACK 33 AUDIO
    TITLE "2Q_j_1570-1583_33"
    INDEX 01 00:49:22
  TRACK 34 AUDIO
    TITLE "2Q_j_1570-1583_34"
    INDEX 01 00:49:71
  TRACK 35 AUDIO
    TITLE "2Q_j_1570-1583_35"
    INDEX 01 00:52:15
  TRACK 36 AUDIO
    TITLE "2Q_j_1570-1583_36"
    INDEX 01 00:52:62
  TRACK 37 AUDIO
    TITLE "2Q_j_1570-1583_37"
    INDEX 01 00:55:21
  TRACK 38 AUDIO
    TITLE "2Q_j_1570-1583_38"
    INDEX 01 00:55:68
  TRACK 39 AUDIO
    TITLE "2Q_j_1570-1583_39"
    INDEX 01 00:57:46
  TRACK 40 AUDIO
    TITLE "2Q_j_1570-1583_40"
    INDEX 01 00:58:16
  TRACK 41 AUDIO
    TITLE "2Q_j_1570-1583_41"
    INDEX 01 01:00:26
  TRACK 42 AUDIO
    TITLE "2Q_j_1570-1583_42"
    INDEX 01 01:00:71
  TRACK 43 AUDIO
    TITLE "2Q_j_1570-1583_43"
    INDEX 01 01:05:53
  TRACK 44 AUDIO
    TITLE "2Q_j_1570-1583_44"
    INDEX 01 01:06:25
  TRACK 45 AUDIO
    TITLE "2Q_j_1570-1583_45"
    INDEX 01 01:08:12
  TRACK 46 AUDIO
    TITLE "2Q_j_1570-1583_46"
    INDEX 01 01:08:57
  TRACK 47 AUDIO
    TITLE "2Q_j_1570-1583_47"
    INDEX 01 01:11:01
  TRACK 48 AUDIO
    TITLE "2Q_j_1570-1583_48"
    INDEX 01 01:11:46
  TRACK 49 AUDIO
    TITLE "2Q_j_1570-1583_49"
    INDEX 01 01:15:22
  TRACK 50 AUDIO
    TITLE "2Q_j_1570-1583_50"
    INDEX 01 01:15:69
  TRACK 51 AUDIO
    TITLE "2Q_j_1570-1583_51"
    INDEX 01 01:17:38
  TRACK 52 AUDIO
    TITLE "2Q_j_1570-1583_52"
    INDEX 01 01:18:10
  TRACK 53 AUDIO
    TITLE "2Q_j_1570-1583_53"
    INDEX 01 01:19:47
  TRACK 54 AUDIO
    TITLE "2Q_j_1570-1583_54"
    INDEX 01 01:20:19
  TRACK 55 AUDIO
    TITLE "2Q_j_1570-1583_55"
    INDEX 01 01:24:37
  TRACK 56 AUDIO
    TITLE "2Q_j_1570-1583_56"
    INDEX 01 01:25:10
  TRACK 57 AUDIO
    TITLE "2Q_j_1570-1583_57"
    INDEX 01 01:27:05
  TRACK 58 AUDIO
    TITLE "2Q_j_1570-1583_58"
    INDEX 01 01:27:51
  TRACK 59 AUDIO
    TITLE "2Q_j_1570-1583_59"
    INDEX 01 01:30:02
  TRACK 60 AUDIO
    TITLE "2Q_j_1570-1583_60"
    INDEX 01 01:30:49
  TRACK 61 AUDIO
    TITLE "2Q_j_1570-1583_61"
    INDEX 01 01:34:37
  TRACK 62 AUDIO
    TITLE "2Q_j_1570-1583_62"
    INDEX 01 01:35:07
  TRACK 63 AUDIO
    TITLE "2Q_j_1570-1583_63"
    INDEX 01 01:36:63
  TRACK 64 AUDIO
    TITLE "2Q_j_1570-1583_64"
    INDEX 01 01:37:37
  TRACK 65 AUDIO
    TITLE "2Q_j_1570-1583_65"
    INDEX 01 01:39:30
  TRACK 66 AUDIO
    TITLE "2Q_j_1570-1583_66"
    INDEX 01 01:40:00
  TRACK 67 AUDIO
    TITLE "2Q_j_1570-1583_67"
    INDEX 01 01:44:57
  TRACK 68 AUDIO
    TITLE "2Q_j_1570-1583_68"
    INDEX 01 01:45:29
  TRACK 69 AUDIO
    TITLE "2Q_j_1570-1583_69"
    INDEX 01 01:47:06
  TRACK 70 AUDIO
    TITLE "2Q_j_1570-1583_70"
    INDEX 01 01:47:51
  TRACK 71 AUDIO
    TITLE "2Q_j_1570-1583_71"
    INDEX 01 01:50:06
  TRACK 72 AUDIO
    TITLE "2Q_j_1570-1583_72"
    INDEX 01 01:50:48
  TRACK 73 AUDIO
    TITLE "2Q_j_1570-1583_73"
    INDEX 01 01:55:53
  TRACK 74 AUDIO
    TITLE "2Q_j_1570-1583_74"
    INDEX 01 01:56:29
  TRACK 75 AUDIO
    TITLE "2Q_j_1570-1583_75"
    INDEX 01 01:58:16
  TRACK 76 AUDIO
    TITLE "2Q_j_1570-1583_76"
    INDEX 01 01:58:61
  TRACK 77 AUDIO
    TITLE "2Q_j_1570-1583_77"
    INDEX 01 02:01:45
  TRACK 78 AUDIO
    TITLE "2Q_j_1570-1583_78"
    INDEX 01 02:02:16
  TRACK 79 AUDIO
    TITLE "2Q_j_1570-1583_79"
    INDEX 01 02:06:13
  TRACK 80 AUDIO
    TITLE "2Q_j_1570-1583_80"
    INDEX 01 02:06:58
  TRACK 81 AUDIO
    TITLE "2Q_j_1570-1583_81"
    INDEX 01 02:08:55
  TRACK 82 AUDIO
    TITLE "2Q_j_1570-1583_82"
    INDEX 01 02:09:23
  TRACK 83 AUDIO
    TITLE "2Q_j_1570-1583_83"
    INDEX 01 02:12:00
  TRACK 84 AUDIO
    TITLE "2Q_j_1570-1583_84"
    INDEX 01 02:12:43
  TRACK 85 AUDIO
    TITLE "2Q_j_1570-1583_85"
    INDEX 01 02:16:63
